<?xml version="1.0" encoding="UTF-8" standalone="no"?>
<svg width="130" height="130" xmlns="http://www.w3.org/2000/svg" xmlns:svg="http://www.w3.org/2000/svg" preserveAspectRatio="xMidYMid">
 <g>
  <title>Layer 1</title>
  <g id="svg_1">
   <path id="svg_2" fill="#424242" d="m120.7636,1l-110.42103,0c-5.27657,0 -9.56334,4.18238 -9.56334,9.33928l0,110.88534c0,5.16139 4.28677,9.35007 9.56334,9.35007l110.42103,0c5.28557,0 9.59213,-4.18868 9.59213,-9.35007l0,-110.88534c0,-5.1569 -4.30656,-9.33928 -9.59213,-9.33928"/>
   <path id="svg_3" fill="#FFFFFF" d="m29.6033,18.83902c6.1458,0 11.13803,4.99312 11.13803,11.13982c0,6.1512 -4.99223,11.14612 -11.13803,11.14612c-6.15839,0 -11.14432,-4.99492 -11.14432,-11.14612c0,-6.1467 4.98593,-11.13982 11.14432,-11.13982l0,0zm-9.61282,30.73889l19.21845,0l0,61.83682l-19.21845,0l0,-61.83682z"/>
   <path id="svg_4" fill="#FFFFFF" d="m51.26297,49.57791l18.4365,0l0,8.44845l0.25555,0c2.5645,-4.86085 8.83448,-9.98715 18.18365,-9.98715c19.4614,0 23.0544,12.8072 23.0544,29.45665l0,33.91887l-19.20495,0l0,-30.07122c0,-7.1743 -0.13228,-16.3975 -9.98715,-16.3975c-10.00155,0 -11.53305,7.81227 -11.53305,15.8783l0,30.59042l-19.20495,0l0,-61.83682"/>
  </g>
 </g>
</svg>